<?xml version="1.0" encoding="utf-8"?>
<!-- Generator: Adobe Illustrator 27.5.0, SVG Export Plug-In . SVG Version: 6.00 Build 0)  -->
<svg version="1.1" xmlns="http://www.w3.org/2000/svg" xmlns:xlink="http://www.w3.org/1999/xlink" x="0px" y="0px"
	 viewBox="0 0 750 500" style="enable-background:new 0 0 750 500;" xml:space="preserve">
<g id="BACKGROUND">
	<rect style="fill:#F1E3DD;" width="750" height="500"/>
</g>
<g id="OBJECTS">
	<g>
		<g>
			<g>
				<g>
					<path style="fill:#1F0C07;" d="M122.61,427.506c0,0,3.785-0.141,3.604,7.061c-0.18,7.202,0,17.825,0,17.825h-3.604v-12.443
						l-10.8,12.443H74.72c0,0,1.981-6.842,19.446-6.662L122.61,427.506z"/>
					<path style="fill:#E9B089;" d="M122.61,427.506v-9.254l-14.435-5.52l2.16,14.773l-17.742,18.383h8.163
						c3.82,0,7.492-1.416,10.317-3.987C114.89,438.429,120.024,433.087,122.61,427.506z"/>
				</g>
				<g>
					<path style="fill:#294286;" d="M100.541,201.08c0,0-13.02,31.527-5.873,120.033c7.148,88.506,9.295,99.883,9.295,99.883
						l23.538-0.373l-5.466-219.543H100.541z"/>
				</g>
			</g>
			<g>
				<g>
					<path style="fill:#1F0C07;" d="M178.672,427.506c0,0-3.785-0.141-3.604,7.061c0.18,7.202,0,17.825,0,17.825h3.604v-12.443
						l10.8,12.443h37.091c0,0-1.981-6.842-19.446-6.662L178.672,427.506z"/>
					<path style="fill:#E9B089;" d="M178.672,427.506l-9.273-19.721l14.435-5.52l7.113,25.24l17.742,18.383h-8.163
						c-3.82,0-7.492-1.416-10.317-3.987C186.393,438.429,181.258,433.087,178.672,427.506z"/>
				</g>
				<g>
					<g>
						<g>
							<path style="fill:#294286;" d="M137.158,201.08c0,0,6.904,18.464,19.109,61.686c13.261,46.962,39.143,157.857,39.143,157.857
								l-25.163,1.32l-69.47-203.888l6.65-16.975H137.158z"/>
							
								<path style="fill:none;stroke:#1E0B02;stroke-width:0.7107;stroke-linecap:round;stroke-linejoin:round;stroke-miterlimit:10;" d="
								M123.566,288.883"/>
						</g>
					</g>
					
						<line style="fill:none;stroke:#000000;stroke-width:0.4574;stroke-linecap:round;stroke-linejoin:round;stroke-miterlimit:10;" x1="124.173" y1="285.374" x2="111.147" y2="248.194"/>
				</g>
			</g>
		</g>
		<g>
			<path d="M155.151,83.308c0,0,3.761,8.151,1.826,19.581c-1.981,11.697,10.904,10.565,9.361,21.898c0,0-36.53,10.853-70.28-11.146
				c0,0-2.308-10.035,4.74-12.436c9.87-3.362,12.372-13.578,12.372-13.578L155.151,83.308z"/>
			<ellipse transform="matrix(0.1349 -0.9909 0.9909 0.1349 26.9316 212.0073)" cx="134.875" cy="90.581" rx="20.342" ry="21.905"/>
			<polygon style="fill:#E9B089;" points="136.928,107.255 136.478,140.625 120.386,138.49 125.355,109.186 			"/>
			<polygon style="fill:#D7896D;" points="122.464,126.247 134.971,116.98 125.04,111.26 			"/>
			<path style="fill:#D7896D;" d="M119.603,105.017c0.07-2.068-0.216-4.143-0.936-6.138c-0.988-2.737-2.696-5.462-5.95-4.427
				c-5.542,1.764-1.538,10.941,3.713,12.346C117.974,107.212,119.559,106.319,119.603,105.017L119.603,105.017z"/>
			<path style="fill:#E9B089;" d="M140.42,75.44c-3.539-1.505-7.409-2.262-11.244-1.984c-5.195,0.376-12.102,2.671-14.169,11.796
				c-3.445,15.208-2.675,25.302,3.975,30.495c4.662,3.641,9.86,4.014,17.11,1.014c2.698-1.116,6.71-5.97,7.788-8.825l3.111-7.948
				C146.99,99.988,157.331,82.63,140.42,75.44z"/>
			<g>
				<g>
					<g>
						
							<polyline style="fill:none;stroke:#000000;stroke-width:0.4498;stroke-linecap:round;stroke-linejoin:round;stroke-miterlimit:10;" points="
							122.182,98.608 119.892,101.831 121.624,102.947 						"/>
					</g>
					<path d="M121.792,84.843c0,0,0.426,1.597-1.985,1.584c-1.831-0.01-2.99-0.039-4.044,0.17c-0.599,0.119-1.243-0.132-1.527-0.59
						l0,0c-0.229-0.37-0.18-0.802,0.14-1.098c0.649-0.6,1.984-1.486,4.21-1.498C121.445,83.396,121.792,84.843,121.792,84.843z"/>
					<path d="M128.604,85.273c0,0-0.993,1.414,2.295,2.138c2.496,0.55,5.419,1.661,6.801,2.186c0.785,0.298,1.727,0.253,2.233-0.104
						l0,0c0.408-0.288,0.453-0.721,0.093-1.105c-0.729-0.778-3.654-2.827-6.684-3.52C129.45,83.979,128.604,85.273,128.604,85.273z"
						/>
					<g>
						<g>
							<defs>
								<path id="XMLID_8_" d="M126.451,96.028c0,0,2.401-5.876,9.819-0.356C136.27,95.672,132.238,100.776,126.451,96.028z"/>
							</defs>
							<use xlink:href="#XMLID_8_"  style="overflow:visible;fill:#FFFFFF;"/>
							<clipPath id="XMLID_00000157292308592941526670000004570748223657336255_">
								<use xlink:href="#XMLID_8_"  style="overflow:visible;"/>
							</clipPath>
							<path style="clip-path:url(#XMLID_00000157292308592941526670000004570748223657336255_);" d="M128.477,95.189
								c-0.361,1.394,0.442,2.807,1.794,3.157c1.352,0.35,2.74-0.496,3.101-1.89s-0.442-2.807-1.794-3.157
								C130.226,92.949,128.837,93.795,128.477,95.189z"/>
						</g>
						<g>
							<path d="M136.146,95.799c-0.67-0.618-1.45-1.114-2.29-1.474c-0.833-0.353-1.739-0.631-2.617-0.702
								c-0.895-0.056-1.806,0.063-2.581,0.444c-0.76,0.375-1.398,1.077-1.644,1.822l-0.013,0.038
								c-0.063,0.193-0.271,0.297-0.464,0.234c-0.193-0.064-0.297-0.271-0.234-0.464c0.001-0.004,0.003-0.009,0.005-0.013
								c0.383-1.025,1.158-1.754,2.076-2.186c0.926-0.413,1.938-0.495,2.898-0.401c0.983,0.116,1.881,0.429,2.754,0.827
								c0.867,0.404,1.671,0.949,2.355,1.621c0.07,0.069,0.071,0.182,0.002,0.252C136.329,95.865,136.216,95.864,136.146,95.799z"/>
						</g>
					</g>
					<g>
						<g>
							<defs>
								<path id="XMLID_7_" d="M120.794,95.204c0,0-1.567-6.361-6.53-2.785C114.264,92.419,116.05,98.491,120.794,95.204z"/>
							</defs>
							<use xlink:href="#XMLID_7_"  style="overflow:visible;fill:#FFFFFF;"/>
							<clipPath id="XMLID_00000078004406807438258360000015597362387767344028_">
								<use xlink:href="#XMLID_7_"  style="overflow:visible;"/>
							</clipPath>
							<path style="clip-path:url(#XMLID_00000078004406807438258360000015597362387767344028_);" d="M119.302,93.674
								c0.039,1.313-0.773,2.402-1.813,2.433c-1.04,0.03-1.914-1.009-1.952-2.322c-0.039-1.313,0.773-2.402,1.813-2.433
								C118.39,91.321,119.264,92.361,119.302,93.674z"/>
						</g>
						<g>
							<path d="M114.151,92.319c0.409-0.474,0.94-0.871,1.559-1.069c0.307-0.103,0.633-0.145,0.957-0.143
								c0.329,0.005,0.639,0.05,0.972,0.171l-0.028-0.01c0.406,0.126,0.815,0.273,1.173,0.514c0.362,0.229,0.697,0.507,0.977,0.83
								c0.284,0.319,0.529,0.671,0.733,1.045c0.203,0.379,0.368,0.756,0.49,1.193c0.046,0.165-0.05,0.336-0.215,0.382
								c-0.165,0.046-0.336-0.05-0.382-0.215c-0.001-0.002-0.001-0.004-0.002-0.007l-0.006-0.022
								c-0.179-0.715-0.536-1.446-1.021-2.029c-0.24-0.299-0.527-0.555-0.841-0.77c-0.309-0.227-0.667-0.368-1.027-0.496
								l-0.028-0.01l0,0c-0.493-0.196-1.108-0.231-1.647-0.077c-0.548,0.152-1.041,0.486-1.44,0.913
								c-0.056,0.061-0.151,0.065-0.212,0.009C114.104,92.473,114.1,92.38,114.151,92.319z"/>
						</g>
					</g>
					<path style="fill:#FFFFFF;" d="M118.414,105.151l9.664,0.722c0,0-1.164,3.475-4.96,3.018
						C119.322,108.433,118.414,105.151,118.414,105.151z"/>
				</g>
				<g>
					<path style="opacity:0.22;fill:#FFFFFF;" d="M133.895,89.885l-9.134,8.854c0,0,1.525,4.666,5.18,4.788l9.162-8.596
						C139.103,94.932,137.799,90.259,133.895,89.885z"/>
					<path style="opacity:0.22;fill:#FFFFFF;" d="M117.236,87.077l-7.975,9.029c0,0,1.195,4.616,4.304,4.656l7.993-8.772
						C121.558,91.99,120.552,87.362,117.236,87.077z"/>
					<path style="fill:none;stroke:#C0653E;stroke-width:0.7177;stroke-miterlimit:10;" d="M124.687,95.557
						c-0.674,4.018,2.038,7.822,6.056,8.495c4.018,0.674,7.822-2.038,8.495-6.056c0.674-4.018-2.038-7.822-6.056-8.495
						C129.164,88.828,125.361,91.539,124.687,95.557z"/>
					<path style="fill:none;stroke:#C0653E;stroke-width:0.7177;stroke-miterlimit:10;" d="M109.252,92.933
						c-0.663,4.02,1.561,7.749,4.968,8.331c3.406,0.581,6.705-2.206,7.368-6.226c0.663-4.02-1.561-7.749-4.968-8.33
						S109.915,88.914,109.252,92.933z"/>
					<path style="fill:none;stroke:#C0653E;stroke-width:0.7177;stroke-miterlimit:10;" d="M124.687,95.557
						c0,0-1.406-1.115-3.099-0.52"/>
					
						<line style="fill:none;stroke:#C0653E;stroke-width:0.7177;stroke-miterlimit:10;" x1="143.947" y1="102.49" x2="139.135" y2="98.611"/>
				</g>
			</g>
			<path d="M143.731,103.245c0.019-1.408-4.001-12.729,1.92-26.344c0,0,5.406-0.645,6.074,9.235
				C152.795,101.983,143.731,103.245,143.731,103.245z"/>
			<g>
				<path style="fill:#E9B089;" d="M140.853,107.873c0.739-2.048,1.828-3.964,3.31-5.632c2.033-2.289,4.766-4.285,7.542-2.004
					c4.727,3.886-2.767,11.291-8.446,10.615C141.588,110.654,140.388,109.162,140.853,107.873L140.853,107.873z"/>
				
					<path style="fill:none;stroke:#000000;stroke-width:0.4498;stroke-linecap:round;stroke-linejoin:round;stroke-miterlimit:10;" d="
					M149.735,104.196c-3.832-1.915-6.586,2.301-6.586,2.301"/>
			</g>
			<path d="M147.253,78.053c0,0-7.422,7.21-34.117,2.909c0,0,5.335-10.137,19.153-10.659
				C146.108,69.782,147.253,78.053,147.253,78.053z"/>
		</g>
		<g>
			<g>
				<g>
					<g>
						<path style="fill:#BE5640;" d="M131.549,136.221c0,0-6.853,23.253-55.7,59.073l-12.714-16.59l42.688-46.319L131.549,136.221z"
							/>
					</g>
					<g>
						<g>
							<path style="fill:#E9B089;" d="M37.299,144.49l9.006-4.638l13.345,19.364c-3.161,2.102-7.332,4.417-10.515,6.507
								L37.299,144.49z"/>
							<g>
								<path style="fill:#E9B089;" d="M47.785,138.778l0.585-2.094c0.787-2.814,0.901-5.773,0.334-8.64l-0.999-5.046
									c-0.237-1.199-1.496-1.897-2.639-1.464v0c-0.965,0.366-1.611,1.282-1.632,2.314l-0.111,5.459l-8.14-14.708
									c-0.422-0.82-1.468-1.083-2.228-0.56l-0.51,0.351c-0.6,0.413-0.826,1.191-0.54,1.861l5.682,11.321l-8.325-12.101
									c-0.473-0.788-1.529-0.984-2.253-0.418l-0.359,0.28c-0.609,0.476-0.768,1.33-0.371,1.993l6.757,11.112l-6.982-7.308
									c-0.653-0.727-1.812-0.664-2.382,0.13l-0.115,0.16c-0.391,0.544-0.382,1.28,0.022,1.814l6.712,8.109l-4.412-3.374
									c-0.79-0.805-2.15-0.508-2.532,0.553l0,0c-0.182,0.505-0.086,1.068,0.253,1.484l16.281,18.422l4.448-4.047
									C45.986,142.875,47.183,140.933,47.785,138.778z"/>
								
									<path style="fill:none;stroke:#000000;stroke-width:0.5672;stroke-linecap:round;stroke-linejoin:round;stroke-miterlimit:10;" d="
									M43.324,129.307c0,0-3.265,2.699-3.028,7.995"/>
							</g>
						</g>
						<g>
							<g>
								<g>
									<g>
										<path style="fill:#BE5640;" d="M80.621,182.029l-29.392-38.506l-11.705,9.785l20.188,36.909
											c3.424,5.939,8.532,8.949,14.186,6.279h0C78.988,194.094,82.981,187.139,80.621,182.029z"/>
									</g>
								</g>
							</g>
							
								<line style="fill:none;stroke:#000000;stroke-width:0.4574;stroke-linecap:round;stroke-linejoin:round;stroke-miterlimit:10;" x1="71.311" y1="169.833" x2="77.637" y2="177.148"/>
						</g>
					</g>
				</g>
				<g>
					<g>
						<path style="fill:#FFFFFF;" d="M106.27,138.846l20.019,14.033l-1.234,69.177l-27.566-4.654
							C97.489,217.402,84.441,158.636,106.27,138.846z"/>
						<polygon points="95.331,217.182 122.574,222.471 121.952,215.605 95.331,211.064 						"/>
						<path style="fill:#E9B089;" d="M136.385,151.289c0,0-33.033,11.06-31.44-9.168l15.563-11.951l10.433,5.898l5.444,4.542
							l5.455,9.114L136.385,151.289z"/>
					</g>
					<g>
						<path style="fill:#BE5640;" d="M121.768,130.882c0,0-14.502,11.262-22.368,31.073c-4.34,10.932-1.684,32.833-0.962,47.452
							c0.722,14.619,1.684,42.55,1.684,42.55l-10.766-6.015c0,0-0.238-64.111,1.323-72.532c1.562-8.421,9.015-40.906,19.788-44.415
							c0,0,3.67-1.088,10.041,1.175L121.768,130.882z"/>
						
							<path style="fill:none;stroke:#000000;stroke-width:0.4574;stroke-linecap:round;stroke-linejoin:round;stroke-miterlimit:10;" d="
							M89.935,184.398c0,0-1.163-20.425,5.395-30.665"/>
					</g>
				</g>
			</g>
			<g>
				<path style="fill:#BE5640;" d="M142.816,140.409c0,0-4.879-4.218-11.906,1.206c-7.027,5.425-15.867,24.713-15.867,47.014
					s6.626,64.796,6.626,64.796s24.19,9.309,41.067-2.746l-25.465-42.95l12.348-34.32L142.816,140.409z"/>
				<g>
					<g>
						<g>
							<path style="fill:#BE5640;" d="M140.909,139.364c0,0,17.872,4.292,50.184,55.528l-17.44,11.52l-33.752-38.186
								L140.909,139.364z"/>
						</g>
						
							<line style="fill:none;stroke:#000000;stroke-width:0.4574;stroke-linecap:round;stroke-linejoin:round;stroke-miterlimit:10;" x1="147.787" y1="177.148" x2="139.902" y2="168.226"/>
					</g>
					<g>
						<g>
							<path style="fill:#E9B089;" d="M119.103,203.03l11.625-2.631l-0.376-2.587c-0.137-0.941,0.355-1.873,1.201-2.274
								c0.874-0.414,1.898-0.157,2.471,0.621l7.829,10.864l5.934,8.369c-6.813,3.405-13.193,2.85-15.01,1.346
								c-0.264,0.018-9.047,0.684-9.047,0.684c-0.877,0.14-1.695-0.447-1.867-1.339c-0.125-0.648,0.024-1.592,1.883-2.012
								l-1.859,0.42c-0.927,0.148-1.788-0.486-1.947-1.435c-0.163-0.845,0.549-1.711,1.679-2.099l-1.383,0.172
								c-1.012,0.162-1.95-0.585-2.021-1.669c-0.061-0.938,0.632-1.768,1.527-1.969l2.053-0.46l-2.281-0.038
								c-1.081,0.096-2.031-0.745-2.066-1.9C117.419,204.101,118.16,203.243,119.103,203.03z"/>
							<polygon style="fill:#E9B089;" points="141.853,207.023 161.152,201.868 164.32,213.467 144.464,216.767 							"/>
						</g>
						<g>
							<g>
								<g>
									<path style="fill:#BE5640;" d="M178.964,191.054l-33.824,11.57l7.156,15.294l32.604-7.284
										c6.094-1.402,9.525-7.884,7.257-13.711l0,0C190.115,191.677,184.227,189.058,178.964,191.054z"/>
								</g>
							</g>
							
								<line style="fill:none;stroke:#000000;stroke-width:0.4574;stroke-linecap:round;stroke-linejoin:round;stroke-miterlimit:10;" x1="164.32" y1="196.063" x2="175.616" y2="192.199"/>
						</g>
					</g>
				</g>
			</g>
		</g>
	</g>
	<g>
		<g>
			<g>
				<polygon style="fill:#FFFFFF;" points="605.197,436.752 606.288,381.344 626.649,385.129 622.463,434.119 				"/>
				<g>
					<g>
						<g>
							<g>
								<defs>
									<path id="XMLID_9_" d="M604.803,427.919c0,0,13.164,7.146,18.829-3.224l36.875,22.042l-61.578-0.396L604.803,427.919z"/>
								</defs>
								<use xlink:href="#XMLID_9_"  style="overflow:visible;fill:#101010;"/>
								<clipPath id="XMLID_00000176766008644225367010000001997106110440821428_">
									<use xlink:href="#XMLID_9_"  style="overflow:visible;"/>
								</clipPath>
							</g>
							
								<rect x="626.87" y="418.577" transform="matrix(0.0064 -1 1 0.0064 176.2935 1076.1639)" style="fill:#FFFFFF;" width="5.656" height="61.58"/>
							<path style="fill:#FFFFFF;" d="M627.001,435.479c0.173-0.071,0.329-0.186,0.449-0.341c2.513-3.294,5.037-4.92,5.063-4.936
								c0.497-0.316,0.632-0.957,0.299-1.432c-0.332-0.475-1.013-0.591-1.501-0.288c-0.117,0.073-2.858,1.827-5.618,5.441
								c-0.352,0.462-0.244,1.108,0.241,1.443C626.254,435.588,626.661,435.618,627.001,435.479z"/>
							<path style="fill:#FFFFFF;" d="M632.286,438.123c0.173-0.071,0.329-0.186,0.449-0.341c2.513-3.294,5.037-4.92,5.063-4.936
								c0.497-0.316,0.632-0.957,0.299-1.432c-0.331-0.474-1.015-0.596-1.502-0.287c-0.117,0.072-2.857,1.827-5.618,5.441
								c-0.352,0.462-0.244,1.108,0.241,1.443C631.539,438.233,631.946,438.263,632.286,438.123z"/>
							<path style="fill:#FFFFFF;" d="M637.571,440.766c0.173-0.071,0.329-0.185,0.449-0.341c2.514-3.293,5.038-4.918,5.063-4.935
								c0.497-0.316,0.632-0.957,0.299-1.432c-0.331-0.474-1.014-0.597-1.502-0.287c-0.117,0.072-2.857,1.827-5.618,5.44
								c-0.352,0.461-0.244,1.108,0.241,1.443C636.824,440.875,637.231,440.905,637.571,440.766z"/>
						</g>
					</g>
				</g>
			</g>
			<g>
				<polygon style="fill:#FFFFFF;" points="552.715,435.309 560.771,380.478 580.493,386.796 570.176,434.87 				"/>
				<g>
					<g>
						<g>
							<g>
								<defs>
									<path id="XMLID_10_" d="M553.381,427.919c0,0,13.164,7.146,18.829-3.224l36.875,22.042l-61.578-0.396L553.381,427.919z"/>
								</defs>
								<use xlink:href="#XMLID_10_"  style="overflow:visible;fill:#101010;"/>
								<clipPath id="XMLID_00000087382870067238873440000004599726721924048049_">
									<use xlink:href="#XMLID_10_"  style="overflow:visible;"/>
								</clipPath>
							</g>
							
								<rect x="575.448" y="418.577" transform="matrix(0.0064 -1 1 0.0064 125.2024 1024.7435)" style="fill:#FFFFFF;" width="5.656" height="61.58"/>
							<path style="fill:#FFFFFF;" d="M575.58,435.479c0.173-0.071,0.329-0.186,0.449-0.341c2.513-3.294,5.037-4.92,5.063-4.936
								c0.497-0.316,0.632-0.957,0.299-1.432c-0.332-0.475-1.013-0.591-1.502-0.288c-0.117,0.073-2.857,1.827-5.618,5.441
								c-0.352,0.462-0.244,1.108,0.241,1.443C574.832,435.588,575.239,435.618,575.58,435.479z"/>
							<path style="fill:#FFFFFF;" d="M580.865,438.123c0.173-0.071,0.329-0.186,0.449-0.341c2.513-3.294,5.037-4.92,5.063-4.936
								c0.497-0.316,0.632-0.957,0.299-1.432c-0.331-0.474-1.015-0.596-1.502-0.287c-0.117,0.072-2.857,1.827-5.618,5.441
								c-0.352,0.462-0.244,1.108,0.241,1.443C580.118,438.233,580.525,438.263,580.865,438.123z"/>
							<path style="fill:#FFFFFF;" d="M586.149,440.766c0.173-0.071,0.329-0.185,0.449-0.341c2.514-3.293,5.038-4.918,5.063-4.935
								c0.497-0.316,0.632-0.957,0.299-1.432c-0.331-0.474-1.014-0.597-1.502-0.287c-0.117,0.072-2.857,1.827-5.618,5.44
								c-0.352,0.461-0.244,1.108,0.241,1.443C585.402,440.875,585.809,440.905,586.149,440.766z"/>
						</g>
					</g>
				</g>
			</g>
			<g>
				<path d="M628.897,219.832c0,0,6.223-0.154,7.188,28.593c0.198,5.909,0.081,14.117-0.287,20.016l-7.931,152.244h-28.865
					l7.44-157.276l-27.304,157.276l-30.039-0.646l32.011-200.207l22.195-2.818L628.897,219.832z"/>
				
					<line style="fill:none;stroke:#434141;stroke-width:0.675;stroke-linecap:round;stroke-linejoin:round;stroke-miterlimit:10;" x1="606.442" y1="263.41" x2="618.919" y2="260.497"/>
			</g>
		</g>
		<g>
			<g>
				<g>
					<path style="fill:#212E38;" d="M589.2,136.652c0,0,10.865,11.038,23.424,15.805c12.559,4.766,36.77,20.096,55.15,21.503
						l-6.113-25.651l-39.876-21.752L589.2,136.652z"/>
				</g>
				<g>
					<g>
						<g>
							<g>
								<path style="fill:#E9B089;" d="M692.839,109.44l0.91-6.729c0.181-1.341,1.131-2.452,2.427-2.84l7.975-2.386
									c1.158-0.346,2.401,0.153,2.998,1.203l0,0c0.716,1.261,0.26,2.863-1.013,3.558l-3.818,2.082c0,0,5.298,4.214,0.186,9.868
									L692.839,109.44z"/>
								<path style="fill:#E9B089;" d="M696.176,99.872l10.411-14.206c0.7-0.955,2.071-1.096,2.951-0.304l0,0
									c0.675,0.607,0.856,1.593,0.441,2.4l-6.55,12.748L696.176,99.872z"/>
								<path style="fill:#E9B089;" d="M704.549,96.407l3.996-1.359c0.843-0.216,1.738-0.023,2.418,0.521l0.921,0.737
									c1.048,0.838,1.345,2.306,0.705,3.485l-5.102,9.092l-6.564-4.833L704.549,96.407z"/>
								<path style="fill:#E9B089;" d="M711.839,97.724h1.488c0.713,0,1.397,0.279,1.906,0.778l1.231,1.206
									c0.523,0.512,0.817,1.213,0.817,1.945l0,0c0,0.59-0.191,1.163-0.545,1.635l-6.536,8.707l-5.666-4.219L711.839,97.724z"/>
								<path style="fill:#E9B089;" d="M714.229,101.171h1.488c0.713,0,1.397,0.279,1.906,0.778l1.231,1.206
									c0.523,0.512,0.817,1.213,0.817,1.945l0,0c0,0.59-0.191,1.163-0.545,1.635l-2.295,3.057
									c-2.345,3.124-6.774,3.763-9.906,1.43l0,0L714.229,101.171z"/>
								<path style="fill:#E9B089;" d="M713.685,111.578l-3.054,3.376c-2.908,3.215-7.872,3.463-11.087,0.554l-6.705-6.067
									l5.199-6.65h6.497l5.666,3.924L713.685,111.578z"/>
							</g>
							
								<path style="fill:none;stroke:#000000;stroke-width:0.5672;stroke-linecap:round;stroke-linejoin:round;stroke-miterlimit:10;" d="
								M696.725,99.778l8.673-2.882c1.243-0.379,2.559,0.316,2.946,1.556l0,0c0.292,0.935-0.023,1.954-0.792,2.561l-5.233,3.316
								c0,0,4.718,2.304,0.87,7.667"/>
						</g>
						<polygon style="fill:#E9B089;" points="692.839,109.44 681.676,124.758 694.126,134.052 705.538,115.15 						"/>
					</g>
					<g>
						<path style="fill:#212E38;" d="M656.67,152.254l28.966-38.046l18.094,14.007l-25.028,39.676
							c-5.077,6.469-12.441,8.053-18.28,3.354h0C655.186,167.033,650.01,157.373,656.67,152.254z"/>
					</g>
				</g>
			</g>
			<g>
				<path style="fill:#212E38;" d="M575.622,138.051l22.985-16.84l11.707,0.141c0,0,11.668,1.902,20.211,14.096
					c8.543,12.195,6.813,110.286,6.813,110.286s-8.855-0.82-9.047-14.943c0,0-2.983,19.154-19.192,21.132
					c-16.208,1.977-42.547-3.1-42.547-3.1l18.034-47.187l-14.496-40.832C567.519,152.782,569.655,143.997,575.622,138.051z"/>
				<g>
					<path style="fill:#39505E;" d="M621.785,126.556l6.902,12.155l-3.523-0.042l3.854,4.969c0,0,2.364,15.15-3.539,33.399
						l-16.431-52.758l1.267-2.927c0,0,4.473,0.872,7.972,3.038"/>
					<g>
						<defs>
							<path id="XMLID_24_" d="M590.394,127.229c0,0,26.953,21.586,35.085,49.808c0,0,2.986-34.697-15.164-55.684l-11.707-0.141
								L590.394,127.229z"/>
						</defs>
						<use xlink:href="#XMLID_24_"  style="overflow:visible;fill:#FFFFFF;"/>
						<clipPath id="XMLID_00000088819276724016768780000012756899928995918253_">
							<use xlink:href="#XMLID_24_"  style="overflow:visible;"/>
						</clipPath>
						<path style="clip-path:url(#XMLID_00000088819276724016768780000012756899928995918253_);fill:#E9B089;" d="M591.589,132.259
							c0,0,26.878,11.616,25.817-6.97l-8.226-15.849c0,0-18.372,5.722-19.476,6.006l-4.838,6.479l-1.357,4.441L591.589,132.259z"/>
					</g>
					<path style="fill:#39505E;" d="M590.394,127.229l-5.672,4.155l7.527,13.009l7.516,0.09l-5.24,5.17
						c0,0,19.868,15.604,30.953,27.384C625.479,177.037,618.121,148.456,590.394,127.229z"/>
					
						<path style="fill:none;stroke:#000000;stroke-width:0.5672;stroke-linecap:round;stroke-linejoin:round;stroke-miterlimit:10;" d="
						M635.667,163.363c0,0-0.39-8.921-2.32-15.891"/>
				</g>
			</g>
			<g>
				<g>
					<g>
						<path style="fill:#212E38;" d="M584.071,131.901c0,0-11.452,3.472-17.661,15.385c-6.208,11.912-25.06,40.177-28.616,58.265
							l26.192-3.058l25.386-37.046L584.071,131.901z"/>
					</g>
					
						<line style="fill:none;stroke:#000000;stroke-width:0.5672;stroke-linecap:round;stroke-linejoin:round;stroke-miterlimit:10;" x1="577.756" y1="182.396" x2="589.371" y2="165.446"/>
				</g>
				<g>
					<g>
						<polygon style="fill:#C27F22;" points="645.771,192.806 603.182,175.698 598.886,185.899 640.486,202.135 						"/>
						<polygon style="fill:#FFFFFF;" points="602.056,182.599 604.265,177.751 644.204,194.154 641.807,199.008 						"/>
						<polygon style="fill:#D59934;" points="642.047,196.009 617.526,254.74 575.513,237.031 599.191,178.441 						"/>
						<polygon style="fill:#C27F22;" points="642.047,196.009 645.771,192.806 621.494,251.392 617.526,254.74 						"/>
						<g>
							<polygon style="fill:#FFFFFF;" points="599.5,201.506 626.348,212.52 629.328,205.49 602.481,194.476 							"/>
						</g>
					</g>
					<g>
						<g>
							<polygon style="fill:#E9B089;" points="579.978,212.103 609.658,228.15 606.354,239.667 575.172,228.915 							"/>
							<path style="fill:#E9B089;" d="M609.658,228.15c0,0,21.036-3.815,20.246,3.751c-0.791,7.566-4.565,25.428-23.55,7.767
								L609.658,228.15z"/>
							<path style="fill:#E9B089;" d="M608.971,229.007l2.847-3.052c1.642-1.76,3.774-2.987,6.121-3.521l4.346-0.989
								c1.042-0.237,2.111,0.271,2.585,1.229l0,0c0.518,1.046,0.175,2.313-0.798,2.956l-6.257,4.13L608.971,229.007z"/>
						</g>
						<g>
							<g>
								<path style="fill:#212E38;" d="M558.292,194.263l47.257,25.192l-9.202,22.122l-49.596-20.87
									c-7.657-2.997-11.297-9.592-8.481-16.537v0C540.795,197.942,551.471,189.361,558.292,194.263z"/>
							</g>
							
								<line style="fill:none;stroke:#000000;stroke-width:0.5672;stroke-linecap:round;stroke-linejoin:round;stroke-miterlimit:10;" x1="566.552" y1="198.666" x2="558.292" y2="194.263"/>
						</g>
					</g>
				</g>
			</g>
		</g>
		<g>
			<path style="fill:#D7896D;" d="M615.625,97.804c0.199-1.994,0.74-3.95,1.688-5.772c1.3-2.5,3.291-4.897,6.282-3.485
				c5.094,2.406,0.07,10.701-5.152,11.376C616.906,100.121,615.499,99.06,615.625,97.804L615.625,97.804z"/>
			<path style="fill:#744028;" d="M624.91,77.668c-1.029,10.833-10.32,23.121-22.039,23.146
				c-11.718,0.025-19.344-9.149-22.13-19.669c-3.127-11.806,10.329-19.88,22.046-19.739
				C610.165,61.496,626.029,65.888,624.91,77.668z"/>
			<polygon style="fill:#E9B089;" points="596.973,96.833 593.985,128.939 610.58,128.968 609.576,100.197 			"/>
			<polygon style="fill:#D7896D;" points="610.159,116.948 599.343,106.443 609.612,102.228 			"/>
			<path style="fill:#E9B089;" d="M599.453,65.862c3.591-0.99,7.404-1.219,11.05-0.459c4.939,1.029,11.275,4.12,12.086,13.146
				c1.352,15.043-0.453,27.176-7.876,30.596c-5.699,2.626-9.854,1.626-16.428-2.186c-2.446-1.418-4.793-7.454-5.462-10.333
				l-2.835-8.041C589.988,88.585,582.293,70.59,599.453,65.862z"/>
			<g>
				<g>
					
						<polyline style="fill:none;stroke:#000000;stroke-width:0.4357;stroke-linecap:round;stroke-linejoin:round;stroke-miterlimit:10;" points="
						613.6,88.131 616.024,93.401 614.23,94.82 					"/>
				</g>
				<path style="fill:#744028;" d="M616.13,77.042c0,0-0.623,2.168,1.692,2.591c1.758,0.321,2.874,0.493,3.857,0.98
					c0.558,0.277,1.21,0.042,1.544-0.551l0,0c0.27-0.479,0.28-1.095,0.013-1.57c-0.542-0.962-1.704-2.453-3.839-2.877
					C616.657,75.068,616.13,77.042,616.13,77.042z"/>
				<path style="fill:#744028;" d="M609.168,76.897c0,0,0.763,2.171-2.488,2.588c-2.468,0.317-5.422,1.345-6.818,1.83
					c-0.793,0.276-1.691,0.039-2.128-0.555l0,0c-0.353-0.48-0.338-1.097,0.059-1.571c0.804-0.961,3.885-3.309,6.884-3.729
					C608.529,74.921,609.168,76.897,609.168,76.897z"/>
				<g>
					<g>
						<defs>
							<path id="XMLID_21_" d="M609.853,87.419c0,0-1.549-5.95-9.381-1.605C600.472,85.814,603.641,91.997,609.853,87.419z"/>
						</defs>
						<use xlink:href="#XMLID_21_"  style="overflow:visible;fill:#FFFFFF;"/>
						<clipPath id="XMLID_00000070106036030639261400000010995860662471801774_">
							<use xlink:href="#XMLID_21_"  style="overflow:visible;"/>
						</clipPath>
						<path style="clip-path:url(#XMLID_00000070106036030639261400000010995860662471801774_);" d="M608.314,86.595
							c0.185,1.536-0.871,2.926-2.361,3.106c-1.489,0.18-2.847-0.919-3.032-2.455c-0.186-1.536,0.871-2.926,2.361-3.106
							C606.771,83.96,608.129,85.059,608.314,86.595z"/>
					</g>
					<g>
						<path d="M600.369,85.676c0.743-0.557,1.586-0.977,2.47-1.254c0.889-0.27,1.792-0.454,2.75-0.44
							c0.934,0.033,1.895,0.242,2.731,0.757c0.826,0.533,1.477,1.333,1.712,2.366c0.044,0.191-0.076,0.382-0.268,0.426
							c-0.192,0.044-0.382-0.076-0.426-0.268c-0.001-0.004-0.002-0.008-0.003-0.012l-0.007-0.039
							c-0.14-0.747-0.662-1.503-1.344-1.961c-0.695-0.466-1.554-0.696-2.421-0.758c-0.851-0.044-1.757,0.106-2.602,0.338
							c-0.852,0.238-1.665,0.614-2.387,1.121c-0.077,0.056-0.185,0.04-0.241-0.037C600.278,85.84,600.296,85.733,600.369,85.676z"/>
					</g>
				</g>
				<g>
					<g>
						<defs>
							<path id="XMLID_20_" d="M615.753,87.36c0,0,2.322-5.905,6.627-1.834C622.381,85.525,620.709,91.325,615.753,87.36z"/>
						</defs>
						<use xlink:href="#XMLID_20_"  style="overflow:visible;fill:#FFFFFF;"/>
						<clipPath id="XMLID_00000032630172034073595590000012671213497865687221_">
							<use xlink:href="#XMLID_20_"  style="overflow:visible;"/>
						</clipPath>
						<path style="clip-path:url(#XMLID_00000032630172034073595590000012671213497865687221_);" d="M617.271,86.199
							c-0.231,1.41,0.486,2.701,1.603,2.884c1.116,0.183,2.208-0.812,2.439-2.221c0.231-1.41-0.487-2.701-1.603-2.884
							S617.502,84.789,617.271,86.199z"/>
					</g>
					<g>
						<path d="M622.26,85.607c-0.328-0.461-0.759-0.846-1.265-1.062c-0.498-0.217-1.093-0.262-1.591-0.138l-0.029,0.006
							c-0.732,0.129-1.417,0.464-1.956,0.975c-0.54,0.498-0.977,1.154-1.241,1.817l-0.007,0.019
							c-0.061,0.154-0.236,0.229-0.39,0.168c-0.154-0.061-0.229-0.236-0.168-0.39c0.001-0.002,0.002-0.005,0.003-0.007
							c0.173-0.404,0.381-0.745,0.624-1.082c0.244-0.332,0.524-0.639,0.838-0.909c0.31-0.274,0.667-0.498,1.045-0.671
							c0.374-0.186,0.786-0.274,1.192-0.343l-0.028,0.006c0.648-0.135,1.284-0.046,1.856,0.221c0.568,0.269,1.027,0.719,1.359,1.226
							c0.044,0.067,0.025,0.158-0.042,0.201C622.393,85.688,622.305,85.67,622.26,85.607z"/>
					</g>
				</g>
				
					<path style="fill:none;stroke:#000000;stroke-width:0.4357;stroke-linecap:round;stroke-linejoin:round;stroke-miterlimit:10;" d="
					M607.933,97.491c0,0,5.39,2.859,9.205-0.567"/>
			</g>
			<path style="fill:#744028;" d="M592.997,92.942c0,0,7.204-22.878-3.456-23.459l-5.836,11.397l3.13,9.517L592.997,92.942z"/>
			<g>
				<path style="fill:#E9B089;" d="M594.857,97.814c-0.446-2.061-1.245-4.04-2.454-5.833c-1.658-2.459-4.025-4.727-6.983-2.893
					c-5.038,3.123,1.204,11.196,6.744,11.277C593.793,100.389,595.137,99.111,594.857,97.814L594.857,97.814z"/>
				
					<path style="fill:none;stroke:#000000;stroke-width:0.4357;stroke-linecap:round;stroke-linejoin:round;stroke-miterlimit:10;" d="
					M586.802,93.142c3.925-1.346,6.027,3.056,6.027,3.056"/>
			</g>
			<path style="fill:#744028;" d="M591.094,69.955c0,0,26.578,6.866,35.743-5.737c0,0-16.844-9.398-31.182-1.652L591.094,69.955z"/>
			<path style="fill:#744028;" d="M591.142,65.923c0,0,5.789-9.125,16.373-9.243c0,0-2.898,7.306-9.184,9.314
				C592.045,68.001,591.142,65.923,591.142,65.923z"/>
			<path style="fill:#744028;" d="M587.789,69.368c0,0,0.305-5.99,5.386-8.938c0,0,0.596,4.321-1.893,7.009
				C588.793,70.126,587.789,69.368,587.789,69.368z"/>
		</g>
	</g>
	<g>
		<g>
			<g>
				<rect x="302.694" y="417.676" style="fill:#FFFFFF;" width="17.157" height="23.497"/>
				<g>
					<path d="M318.938,434.99l-6.77,4.514l-7.53-2.378c-0.589-0.186-1.225-0.159-1.797,0.077l0,0
						c-0.985,0.407-1.628,1.367-1.628,2.433v9.643h50.649c0,0-0.065-8.451-12.611-6.416l-17.742-8.08
						C320.674,434.403,319.701,434.481,318.938,434.99z"/>
					
						<rect x="301.213" y="449.279" transform="matrix(-1 -1.224647e-16 1.224647e-16 -1 614.9322 901.7843)" width="12.506" height="3.226"/>
					<polygon points="313.719,449.279 320.351,452.505 351.862,452.505 351.862,449.279 					"/>
				</g>
			</g>
			<g>
				<polygon style="fill:#FFFFFF;" points="254.31,417.676 271.467,417.676 268.475,441.173 251.318,441.173 				"/>
				<g>
					<path d="M267.558,434.99l-6.77,4.514l-7.53-2.378c-0.589-0.186-1.225-0.159-1.797,0.077l0,0
						c-0.985,0.407-1.628,1.367-1.628,2.433v9.643h50.649c0,0-0.065-8.451-12.611-6.416l-17.742-8.08
						C269.294,434.403,268.322,434.481,267.558,434.99z"/>
					
						<rect x="249.833" y="449.279" transform="matrix(-1 -1.224647e-16 1.224647e-16 -1 512.1725 901.7843)" width="12.506" height="3.226"/>
					<polygon points="262.339,449.279 268.971,452.505 300.482,452.505 300.482,449.279 					"/>
				</g>
			</g>
			<g>
				<g>
					<path style="fill:#212E38;" d="M320.456,199.869c0,0,1.696,3.31,2.752,34.739c0.217,6.46,1.25,18.023,1.321,28.419
						l-0.44,164.566h-26.662l-3.028-171.963l-19.585,171.963l-26.98-0.707l15.905-220.934l25.248-3.081L320.456,199.869z"/>
				</g>
				
					<line style="fill:none;stroke:#000000;stroke-width:0.4574;stroke-linecap:round;stroke-linejoin:round;stroke-miterlimit:10;" x1="294.399" y1="255.631" x2="307.803" y2="249.86"/>
			</g>
		</g>
		<g>
			<g>
				<g>
					<g>
						<path style="fill:#E9B089;" d="M319.11,210.012l25.67,55.801l8.163-0.565c-9.908-38.09-9.891-38.032-17.167-61.523
							c-1.152-3.721-8.655-4.612-12.271-3.164l0,0C320.116,201.917,317.757,206.622,319.11,210.012z"/>
					</g>
					<path style="fill:#E9B089;" d="M344.059,260.81c0,0-2.147,7.584,1.458,14.469l-0.743,7.569
						c-0.115,1.175,0.655,2.23,1.806,2.472l0,0c1.246,0.262,2.506-0.513,2.845-1.753l1.215-4.433l0.43,1.52
						c0.683,2.414,0.52,5.01-0.464,7.368l-2.798,6.712c-0.318,0.764-1.198,0.627-0.686,1.253l0,0c0.99,1.21,2.923,1.011,3.719-0.382
						l5.778-7.365c1.852-3.242,2.231-7.079,1.04-10.53l-7.398-19.544L344.059,260.81z"/>
				</g>
				<path style="fill:#FFFFFF;" d="M337.786,202.872l-2.218-35.518c-3.143-27.216-20.134-34.477-20.134-34.477L314,179.204
					l5.153-2.831l3.66,48.301l15.585,36.23l15.258-6.356L337.786,202.872z"/>
			</g>
			<g>
				<path style="fill:#744028;" d="M288.674,126.355c-7.222,0.615-14.347,2.169-21.1,4.802c-1.901,0.741-3.788,1.565-5.498,2.46
					c-4.816,2.52-3.375,7.964-2.77,13.523l2.83,75.162l58.771-1.426c2.665-0.064,4.749-2.319,4.602-4.981l-2.325-60.279
					c-0.222-10.578-2.053-20.87-9.142-23.369c-7.942-2.8-17.635-5.937-21.861-6.191L288.674,126.355z"/>
				<g>
					<path style="fill:#FFFFFF;" d="M310.468,131.009c0,0-11.162-4.371-18.287-4.952c0,0-9.735,0.414-16.428,2.476l24.382,32.087
						L310.468,131.009z"/>
					<g>
						<polygon style="fill:#294286;" points="296.84,131.595 291.926,137.794 297.769,142.039 302.42,137.107 						"/>
						<polygon style="fill:#294286;" points="296.53,139.399 293.585,152 300.135,160.62 302.42,154.071 298.512,139.399 						"/>
					</g>
					
						<polyline style="fill:none;stroke:#E0E0E0;stroke-width:0.75;stroke-linecap:round;stroke-linejoin:round;stroke-miterlimit:10;" points="
						291.704,138.129 290.349,140.171 282.448,136.817 					"/>
					
						<polyline style="fill:none;stroke:#E0E0E0;stroke-width:0.75;stroke-linecap:round;stroke-linejoin:round;stroke-miterlimit:10;" points="
						302.42,137.107 304.227,138.806 308.365,135.633 					"/>
				</g>
			</g>
			<g>
				<path style="fill:#FFFFFF;" d="M264.257,132.478c0,0-18.156,2.924-56.819,55.419l19.918,15.563l31.936-36.963
					C271.824,150.136,264.257,132.478,264.257,132.478z"/>
				<g>
					<g>
						<polygon points="252.627,150.136 295.762,165.816 292.154,176.28 250.337,160.611 						"/>
						<polygon style="fill:#FFFFFF;" points="291.996,171.707 293.585,166.622 252.895,152.185 251.44,157.4 						"/>
						<polygon style="fill:#212E38;" points="253.262,155.006 232.33,215.11 275.437,229.958 296.904,170.522 						"/>
						<polygon points="253.262,155.006 252.627,150.136 231.61,209.969 232.33,215.11 						"/>
						<g>
							<polygon style="fill:#FFFFFF;" points="281.28,187.493 253.936,177.78 256.408,170.555 283.752,180.268 							"/>
						</g>
					</g>
					<g>
						<g>
							<polygon style="fill:#E9B089;" points="238.36,192.6 270.076,204.116 268.498,215.994 236.076,209.936 							"/>
							<path style="fill:#E9B089;" d="M270.076,204.116c0,0,20.248-6.862,20.577,0.738c0.329,7.6-0.783,25.823-22.154,11.14
								L270.076,204.116z"/>
							<path style="fill:#E9B089;" d="M269.521,205.065l2.368-3.437c1.366-1.982,3.295-3.508,5.538-4.381l4.154-1.617
								c0.996-0.388,2.128-0.042,2.738,0.836l0,0c0.665,0.958,0.513,2.262-0.356,3.041l-5.583,5.003L269.521,205.065z"/>
						</g>
						<g>
							<g>
								<path style="fill:#FFFFFF;" d="M222.365,184.342l41.118,13.322l-3.805,20.924l-45.895-11.459
									c-7.127-2.142-10.694-10.109-7.545-16.851v0C209.073,184.208,216.271,181.559,222.365,184.342z"/>
							</g>
							
								<line style="fill:none;stroke:#E0E0E0;stroke-width:0.75;stroke-linecap:round;stroke-linejoin:round;stroke-miterlimit:10;" x1="238.513" y1="189.574" x2="227.356" y2="185.959"/>
						</g>
					</g>
				</g>
			</g>
		</g>
		<g>
			<path style="fill:#FFFFFF;" d="M294.639,61.711c0,0,13.898-6.229,21.097,1.353c5.647,5.947-3.966,16.309-9.11,15.729
				C301.481,78.213,294.639,61.711,294.639,61.711z"/>
			<path style="fill:#D7896D;" d="M306.27,97.298c0.18-2.049,0.711-4.064,1.662-5.947c1.304-2.583,3.318-5.068,6.406-3.655
				c5.259,2.407,0.204,10.985-5.149,11.742C307.615,99.661,306.157,98.588,306.27,97.298L306.27,97.298z"/>
			<path style="fill:#FFFFFF;" d="M313.419,80.05c0.158,11.171-8.175,20.325-20.204,20.495c-12.029,0.171-21.91-8.747-22.068-19.918
				c-0.158-11.171,9.465-20.365,21.494-20.536C304.671,59.921,313.261,68.879,313.419,80.05z"/>
			<polygon style="fill:#E9B089;" points="287.111,96.532 284.661,126.801 296.84,131.595 301.418,128.109 300.091,99.829 			"/>
			<polygon style="fill:#D7896D;" points="300.895,117.018 289.662,106.367 300.152,101.914 			"/>
			<path style="fill:#E9B089;" d="M289.274,64.706c3.674-1.06,7.585-1.342,11.338-0.608c5.083,0.995,11.626,4.09,12.57,13.346
				c1.574,15.426-0.129,27.904-7.707,31.507c-5.818,2.766-10.096,1.791-16.892-2.041c-2.529-1.426-5.013-7.593-5.734-10.541
				l-3.01-8.22C279.839,88.15,271.716,69.772,289.274,64.706z"/>
			<g>
				<g>
					
						<polyline style="fill:none;stroke:#000000;stroke-width:0.4473;stroke-linecap:round;stroke-linejoin:round;stroke-miterlimit:10;" points="
						304.432,88.496 306.263,92.025 304.878,93.147 					"/>
				</g>
				<path style="fill:#FFFFFF;" d="M306.533,75.083c0,0-0.612,2.234,1.769,2.639c1.808,0.308,2.957,0.47,3.972,0.958
					c0.577,0.277,1.243,0.028,1.579-0.585l0,0c0.271-0.495,0.274-1.128-0.006-1.612c-0.569-0.981-1.78-2.497-3.976-2.906
					C307.049,73.051,306.533,75.083,306.533,75.083z"/>
				<path style="fill:#FFFFFF;" d="M299.383,75.021c0,0,0.81,2.219-2.522,2.688c-2.53,0.356-5.549,1.448-6.976,1.964
					c-0.81,0.293-1.736,0.061-2.192-0.543l0,0c-0.368-0.488-0.36-1.121,0.041-1.613c0.813-0.997,3.947-3.445,7.021-3.913
					C298.703,73.001,299.383,75.021,299.383,75.021z"/>
				<g>
					<g>
						<defs>
							<path id="XMLID_16_" d="M299.908,86.466c0,0-1.664-6.089-9.65-1.531C290.258,84.935,293.588,91.243,299.908,86.466z"/>
						</defs>
						<use xlink:href="#XMLID_16_"  style="overflow:visible;fill:#FFFFFF;"/>
						<clipPath id="XMLID_00000176035707926444689870000002113942071030960310_">
							<use xlink:href="#XMLID_16_"  style="overflow:visible;"/>
						</clipPath>
						<path style="clip-path:url(#XMLID_00000176035707926444689870000002113942071030960310_);" d="M298.318,85.639
							c0.209,1.574-0.858,3.015-2.385,3.218c-1.527,0.203-2.934-0.908-3.143-2.483c-0.21-1.574,0.858-3.015,2.385-3.218
							C296.701,82.953,298.109,84.065,298.318,85.639z"/>
					</g>
					<g>
						<path d="M290.151,84.794c0.756-0.581,1.616-1.023,2.52-1.318c0.91-0.288,1.834-0.489,2.818-0.485
							c0.96,0.022,1.948,0.225,2.813,0.744c0.855,0.537,1.532,1.35,1.787,2.407c0.047,0.196-0.073,0.393-0.27,0.441
							c-0.196,0.047-0.393-0.074-0.44-0.27c-0.001-0.004-0.002-0.008-0.003-0.012l-0.008-0.04c-0.153-0.765-0.698-1.535-1.404-1.996
							c-0.719-0.469-1.604-0.695-2.494-0.748c-0.875-0.034-1.803,0.131-2.667,0.379c-0.872,0.255-1.701,0.65-2.437,1.18
							c-0.078,0.059-0.189,0.043-0.248-0.035C290.059,84.964,290.076,84.853,290.151,84.794z"/>
					</g>
				</g>
				<g>
					<g>
						<defs>
							<path id="XMLID_15_" d="M306.273,86.574c0,0,2.311-6.091,6.781-1.965C313.054,84.609,311.41,90.584,306.273,86.574z"/>
						</defs>
						<use xlink:href="#XMLID_15_"  style="overflow:visible;fill:#FFFFFF;"/>
						<clipPath id="XMLID_00000004516045562955010960000011916630924405828504_">
							<use xlink:href="#XMLID_15_"  style="overflow:visible;"/>
						</clipPath>
						<path style="clip-path:url(#XMLID_00000004516045562955010960000011916630924405828504_);" d="M307.817,85.364
							c-0.22,1.45,0.533,2.767,1.681,2.941c1.148,0.174,2.257-0.86,2.477-2.311c0.22-1.45-0.533-2.767-1.681-2.941
							C309.145,82.879,308.036,83.914,307.817,85.364z"/>
					</g>
					<g>
						<path d="M312.931,84.695c-0.343-0.469-0.79-0.859-1.312-1.074c-0.514-0.217-1.125-0.256-1.635-0.122l0,0l-0.029,0.007
							c-0.371,0.084-0.742,0.18-1.074,0.366c-0.335,0.175-0.65,0.392-0.922,0.659c-0.549,0.518-0.989,1.197-1.252,1.88l-0.008,0.02
							c-0.061,0.159-0.239,0.238-0.398,0.177c-0.159-0.061-0.238-0.239-0.177-0.398c0.001-0.002,0.002-0.006,0.003-0.008
							c0.173-0.417,0.382-0.769,0.628-1.119c0.246-0.344,0.53-0.662,0.849-0.943c0.315-0.285,0.679-0.52,1.064-0.702
							c0.382-0.195,0.804-0.291,1.22-0.367l-0.029,0.007c0.343-0.08,0.655-0.086,0.98-0.052c0.32,0.037,0.637,0.118,0.928,0.256
							c0.587,0.269,1.063,0.726,1.41,1.242c0.046,0.069,0.028,0.161-0.041,0.207C313.069,84.776,312.979,84.759,312.931,84.695z"/>
					</g>
				</g>
				<g>
					<path style="fill:#FFFFFF;" d="M305.182,94.777c-0.243-0.635-0.784-1.099-1.444-1.265c-1.107-0.278-3.076-0.322-5.087,1.823
						c-3.048,3.251-5.893,3.048-6.908,2.337c0,0,5.486,7.01,12.597,1.118C304.339,98.79,305.955,96.797,305.182,94.777z"/>
					<path style="fill:#FFFFFF;" d="M304.328,96.434c-0.378-1.759,1.16-3.261,2.945-3.035c0.919,0.116,2.018,0.569,3.131,1.757
						c2.783,2.969,4.488,2.784,5.416,2.134c0,0-4.117,6.402-10.612,1.021C305.208,98.311,304.559,97.511,304.328,96.434z"/>
				</g>
				<g>
					<path style="opacity:0.22;fill:#FFFFFF;" d="M312.529,80.501l5.516,6.005c0,0,0.043,4.31-3.988,4.741l-8.489-9.523
						C305.567,81.723,306.048,79.506,312.529,80.501z"/>
					<path style="opacity:0.22;fill:#FFFFFF;" d="M294.646,80.501l6.503,6.809c0,0,0,4.378-4.975,3.936L286.733,81.2
						C286.733,81.2,288.686,80.383,294.646,80.501z"/>
					<g>
						
							<path style="fill:none;stroke:#000000;stroke-width:1.009;stroke-linecap:round;stroke-linejoin:round;stroke-miterlimit:10;" d="
							M301.886,83.466c-0.13,1.614-0.315,4.016-1.36,6.098c-0.504,1.005-1.521,1.65-2.644,1.706l-7.866-0.027
							c-1.568-0.116-2.834-1.302-3.134-2.845c-0.253-1.299-0.421-2.974-0.184-4.749c0.186-1.394,1.222-2.535,2.606-2.788
							c2.534-0.462,10.591-0.237,10.591-0.237C301.171,80.927,301.992,82.159,301.886,83.466z"/>
						<path d="M290.408,80.218l-5.161,0.276c-0.302,0.016-0.536,0.272-0.525,0.575l0.034,0.952c0.006,0.174,0.094,0.335,0.237,0.435
							l1.706,1.192C286.699,83.649,287.62,80.535,290.408,80.218z"/>
					</g>
					<g>
						
							<path style="fill:none;stroke:#000000;stroke-width:1.009;stroke-linecap:round;stroke-linejoin:round;stroke-miterlimit:10;" d="
							M305.579,83.355c0.13,1.614,0.202,4.127,1.247,6.209c0.504,1.005,1.521,1.65,2.644,1.706l5.184-0.027
							c1.568-0.116,2.834-1.302,3.134-2.845c0.253-1.299,0.421-2.974,0.184-4.749c-0.186-1.394-1.222-2.535-2.606-2.788
							c-2.534-0.462-7.797-0.348-7.797-0.348C306.048,80.624,305.474,82.048,305.579,83.355z"/>
						<path d="M314.264,80.218l5.161,0.276c0.302,0.016,0.536,0.272,0.525,0.575l-0.034,0.952c-0.006,0.174-0.094,0.335-0.237,0.435
							l-1.706,1.192C317.973,83.649,317.052,80.535,314.264,80.218z"/>
					</g>
					
						<path style="fill:none;stroke:#000000;stroke-width:1.009;stroke-linecap:round;stroke-linejoin:round;stroke-miterlimit:10;" d="
						M305.57,85.766c0,0-1.3-1.32-3.823,0.181"/>
					
						<line style="fill:none;stroke:#000000;stroke-width:1.009;stroke-linecap:round;stroke-linejoin:round;stroke-miterlimit:10;" x1="280.091" y1="88.839" x2="286.733" y2="82.33"/>
				</g>
			</g>
			<g>
				<path style="fill:#E9B089;" d="M284.95,97.564c-0.483-2.11-1.328-4.132-2.591-5.958c-1.732-2.504-4.19-4.803-7.204-2.884
					c-5.133,3.268,1.375,11.478,7.063,11.493C283.891,100.221,285.254,98.893,284.95,97.564L284.95,97.564z"/>
				
					<path style="fill:none;stroke:#000000;stroke-width:0.4473;stroke-linecap:round;stroke-linejoin:round;stroke-miterlimit:10;" d="
					M276.624,92.868c4.013-1.43,6.225,3.062,6.225,3.062"/>
			</g>
			<path style="fill:#FFFFFF;" d="M300.612,64.099c0,0-5.22-1.451-7.207,3.784c-2.752,7.252-11.071,10.458-18.233,8.259
				c0,0,1.64-10.326,12.253-13.356C298.038,59.755,300.612,64.099,300.612,64.099z"/>
			<path style="fill:#FFFFFF;" d="M300.895,61.711c0,0-2.329-5.467-12.087-4.365c-11.655,1.316-18.525,11.196-16.689,17.021
				c1.414,4.487,10.73-1.939,10.73-1.939L300.895,61.711z"/>
		</g>
	</g>
	<g>
		<g>
			<g>
				<g>
					<path d="M401.684,442.258l-9.65,5.312c-1.023,0.563-1.643,1.852-1.325,3.074c0.251,0.966,1.075,1.703,3.221,1.746
						c4.771,0.095,30.996-3.423,30.996-3.423v2.713l9.865,0.025c0,0,0.617-14-2.366-15.829L401.684,442.258z"/>
					<path style="fill:#C67B5B;" d="M419.726,433.594l-18.043,8.664c0,0,6.779,4.772,14.146,1.591
						c7.367-3.181,16.596-7.973,16.596-7.973l-1.346-3.633L419.726,433.594z"/>
				</g>
				<polygon style="fill:#C67B5B;" points="431.079,432.243 432.425,392.047 418.589,392.894 418.589,437.764 				"/>
			</g>
			<g>
				<g>
					<path d="M521.675,442.258l9.65,5.312c1.023,0.563,1.642,1.852,1.325,3.074c-0.251,0.966-1.075,1.703-3.222,1.746
						c-4.771,0.095-30.996-3.423-30.996-3.423v2.836l-9.726-0.123c0,0-0.756-13.975,2.227-15.804L521.675,442.258z"/>
					<path style="fill:#C67B5B;" d="M503.632,433.594l18.043,8.664c0,0-6.779,4.772-14.146,1.591
						c-7.367-3.181-16.596-7.973-16.596-7.973l1.346-3.633L503.632,433.594z"/>
				</g>
				<polygon style="fill:#C67B5B;" points="492.279,432.243 482.161,392.047 495.997,392.894 505.884,438.682 				"/>
			</g>
			<g>
				<g>
					<path style="fill:#294286;" d="M427.148,198.18c0,0-19.058,31.047-18.584,58.455c0.474,27.408,7.197,163.434,7.197,163.434
						h22.829l4.594-171.905l2.75-0.168l35.627,172.14l21.439-2.059L480.41,258.225c-1.546-9.884-4.196-19.573-8.044-28.808
						c-3.289-7.893-7.242-21.186-12.879-28.15L427.148,198.18z"/>
				</g>
				
					<line style="fill:none;stroke:#000000;stroke-width:0.4574;stroke-linecap:round;stroke-linejoin:round;stroke-miterlimit:10;" x1="443.309" y1="248.271" x2="456.067" y2="247.499"/>
			</g>
		</g>
		<g>
			<g>
				<g>
					<path style="fill:#C67B5B;" d="M395.16,166.75l-16.916,25.289c-5.915,9.258,8.227,18.799,14.622,9.923
						c0,0.001,28.802-38.442,28.802-38.442L395.16,166.75z"/>
					<path style="fill:#CA98BE;" d="M419.771,137.301c-10.681-3.513-26.954,24.039-33.383,33.982l25.785,16.971
						C416.954,180.402,448.805,148.7,419.771,137.301z"/>
				</g>
				<path style="fill:#CA98BE;" d="M462.263,136.994c0,0,18.479,1.208,19.222,28.385l-12.684,2.924L462.263,136.994z"/>
				<g>
					<path style="fill:#CA98BE;" d="M417.093,136.881c20.654-3.797,32.081-3.796,47.588,0.603
						c17.552,4.979,2.689,52.371-1.431,70.347h-41.122l-13.841-53.458C410.18,150.095,410.632,137.275,417.093,136.881z"/>
					
						<line style="fill:none;stroke:#000000;stroke-width:0.4443;stroke-linecap:round;stroke-linejoin:round;stroke-miterlimit:10;" x1="416.294" y1="185.302" x2="411.378" y2="164.518"/>
					
						<line style="fill:none;stroke:#000000;stroke-width:0.4443;stroke-linecap:round;stroke-linejoin:round;stroke-miterlimit:10;" x1="469.301" y1="178.192" x2="472.262" y2="157.408"/>
					<g>
						<path style="fill:#FFFFFF;" d="M447.502,142.787l-12.848-7.937l0.677-4.402h-2.121c-0.877,0-1.718,0.348-2.338,0.967
							l-3.853,3.845l8.851,13.264c0.926,1.388,2.853,1.661,4.129,0.586L447.502,142.787z"/>
						<path style="fill:#FFFFFF;" d="M451.357,130.448h1.597c1.105,0,2.137,0.551,2.751,1.469l2.662,3.977l-1.159,11.495
							c-0.118,1.169-1.475,1.754-2.406,1.035l-7.3-5.637l4.112-6.877L451.357,130.448z"/>
						<path style="fill:#FFFFFF;" d="M448.774,148.266c0,0.703-0.57,1.272-1.272,1.272c-0.703,0-1.272-0.57-1.272-1.272
							c0-0.703,0.57-1.272,1.272-1.272C448.204,146.994,448.774,147.563,448.774,148.266z"/>
						<path style="fill:#FFFFFF;" d="M449.058,153.336c0,0.703-0.57,1.272-1.272,1.272c-0.703,0-1.272-0.57-1.272-1.272
							c0-0.703,0.57-1.272,1.272-1.272C448.488,152.063,449.058,152.633,449.058,153.336z"/>
					</g>
				</g>
			</g>
			<g>
				<g>
					<path style="fill:#C67B5B;" d="M436.281,177.639c0,0,7.174-12.706,25.983-5.195l-7.292,15.507l-16.447-0.563L436.281,177.639z"
						/>
					<g>
						<g>
							<polygon style="fill:#C67B5B;" points="436.281,177.639 385.748,186.305 388.703,205.15 438.524,187.388 							"/>
						</g>
						
							<line style="fill:none;stroke:#000000;stroke-width:0.4443;stroke-linecap:round;stroke-linejoin:round;stroke-miterlimit:10;" x1="403.951" y1="183.184" x2="391.601" y2="185.302"/>
					</g>
				</g>
				<g>
					<g>
						<path style="fill:#FFFFFF;" d="M439.866,218.046l-3.426-3.806l20.809-48.861c0,0,37.34-6.286,52.611-1.107L439.866,218.046z"
							/>
						<path d="M509.859,164.272l-8.117,1.107l-24.167,47.412c0,0,7.01,0.184,10.146-5.903L509.859,164.272z"/>
						<polygon style="fill:#212E38;" points="501.742,165.379 460.167,169.07 439.866,218.046 477.575,212.791 						"/>
						<polygon style="fill:#FFFFFF;" points="487.757,176.884 464.542,178.945 462.263,184.509 484.872,182.368 						"/>
						<polygon style="fill:#FFFFFF;" points="509.859,164.272 504.967,141.757 500.174,141.757 490.878,163.108 						"/>
					</g>
					<path style="fill:#C67B5B;" d="M492.317,198.041c0,0,5.532,1.351,10.217-5.797c4.686-7.148,0.146-10.941,0.146-10.941
						l-11.735-8.257c-0.49-0.345-1.155-0.293-1.586,0.123l0,0c-0.509,0.492-0.508,1.308,0.003,1.798l6.965,6.691l-10.525-6.927
						c-0.802-0.528-1.883-0.281-2.376,0.543l0,0c-0.437,0.73-0.262,1.672,0.408,2.196l9.755,7.638l-8.766-4.543
						c-0.699-0.362-1.559-0.081-1.909,0.624l0,0c-0.305,0.615-0.122,1.36,0.432,1.764l8.925,6.499l-7.614-3.634
						c-0.73-0.348-1.604-0.059-1.983,0.656l0,0c-0.35,0.662-0.162,1.481,0.443,1.923l10.268,7.506L492.317,198.041z"/>
				</g>
			</g>
		</g>
		<g>
			<path style="fill:#A4563A;" d="M456.465,105.106c0.178-2.036,0.706-4.036,1.65-5.907c1.295-2.565,3.295-5.034,6.362-3.63
				c5.223,2.391,0.203,10.911-5.114,11.662C457.8,107.452,456.353,106.387,456.465,105.106L456.465,105.106z"/>
			<path style="fill:#FFFFFF;" d="M465.003,105.715c0.059,0.793-0.537,1.482-1.329,1.541c-0.793,0.059-1.482-0.537-1.541-1.329
				c-0.058-0.793,0.537-1.482,1.329-1.541C464.254,104.328,464.944,104.923,465.003,105.715z"/>
			
				<ellipse transform="matrix(0.7071 -0.7071 0.7071 0.7071 47.1203 332.2012)" cx="424.562" cy="109.221" rx="13.184" ry="13.184"/>
			<path d="M427.8,75.061c0,0-3.896-2.105-7.979,3.747c-4.083,5.852-3.452,18.109,4.873,20.339L427.8,75.061z"/>
			<path d="M427.8,75.061c0,0,2.22-11.442,19.43-9.093c17.21,2.349,28.583,9.711,16.632,25.998L427.8,75.061z"/>
			<path d="M463.565,88.862c0.157,11.096-8.119,20.187-20.067,20.357c-11.948,0.169-21.762-8.688-21.919-19.784
				c-0.157-11.096,9.401-20.228,21.349-20.397C454.876,68.869,463.408,77.767,463.565,88.862z"/>
			<polygon style="fill:#C67B5B;" points="439.211,105.232 434.654,134.851 447.502,142.787 451.613,135.911 450.327,108.507 			"/>
			<polygon style="fill:#A4563A;" points="451.126,125.58 439.969,115.001 450.388,110.578 			"/>
			<path style="fill:#C67B5B;" d="M439.583,73.622c3.649-1.053,7.534-1.333,11.262-0.604c5.049,0.989,11.547,4.063,12.485,13.256
				c1.563,15.322-0.128,26.828-7.655,30.406c-5.778,2.747-10.028,1.779-16.778-2.027c-2.512-1.416-4.979-6.654-5.696-9.582
				l-2.99-8.164C430.212,96.907,422.144,78.653,439.583,73.622z"/>
			<g>
				<g>
					
						<polyline style="fill:none;stroke:#000000;stroke-width:0.4443;stroke-linecap:round;stroke-linejoin:round;stroke-miterlimit:10;" points="
						454.722,100.649 456.818,104.522 455.006,105.99 					"/>
				</g>
				<path d="M456.726,87.328c0,0-0.608,1.515,1.757,1.79c1.796,0.209,2.937,0.319,3.945,0.65c0.573,0.188,1.235,0.019,1.568-0.397
					l0,0c0.269-0.336,0.273-0.765-0.006-1.093c-0.565-0.665-1.767-1.693-3.949-1.971C457.239,85.95,456.726,87.328,456.726,87.328z"
					/>
				<path d="M449.625,87.285c0,0,0.805,1.505-2.505,1.823c-2.513,0.241-5.512,0.982-6.929,1.331
					c-0.805,0.198-1.724,0.042-2.177-0.368l0,0c-0.366-0.331-0.358-0.76,0.041-1.094c0.808-0.676,3.92-2.336,6.974-2.654
					C448.949,85.915,449.625,87.285,449.625,87.285z"/>
				<g>
					<g>
						<defs>
							<path id="XMLID_14_" d="M450.452,98.498c0,0-1.653-6.048-9.585-1.521C440.867,96.977,444.212,102.463,450.452,98.498z"/>
						</defs>
						<use xlink:href="#XMLID_14_"  style="overflow:visible;fill:#FFFFFF;"/>
						<clipPath id="XMLID_00000170277131191898627200000008146328759014890382_">
							<use xlink:href="#XMLID_14_"  style="overflow:visible;"/>
						</clipPath>
						<path style="clip-path:url(#XMLID_00000170277131191898627200000008146328759014890382_);" d="M448.566,97.433
							c0.188,1.41-0.769,2.7-2.136,2.882c-1.367,0.182-2.627-0.813-2.815-2.223c-0.187-1.41,0.769-2.7,2.136-2.882
							C447.118,95.028,448.378,96.023,448.566,97.433z"/>
					</g>
					<g>
						<path d="M440.761,96.837c0.751-0.577,1.605-1.016,2.503-1.309c0.903-0.286,1.821-0.485,2.799-0.482
							c0.953,0.022,1.935,0.224,2.794,0.739c0.849,0.533,1.522,1.34,1.775,2.391c0.047,0.195-0.073,0.391-0.268,0.438
							c-0.195,0.047-0.391-0.073-0.438-0.268c-0.001-0.004-0.002-0.008-0.003-0.012l-0.008-0.04
							c-0.152-0.76-0.694-1.524-1.394-1.983c-0.714-0.466-1.593-0.691-2.478-0.743c-0.869-0.034-1.79,0.13-2.649,0.377
							c-0.866,0.253-1.69,0.646-2.421,1.172c-0.078,0.058-0.188,0.043-0.246-0.035C440.67,97.006,440.687,96.896,440.761,96.837z"/>
					</g>
				</g>
				<g>
					<g>
						<defs>
							<path id="XMLID_13_" d="M456.468,98.365c0,0,2.295-6.05,6.735-1.952C463.203,96.413,460.727,102.153,456.468,98.365z"/>
						</defs>
						<use xlink:href="#XMLID_13_"  style="overflow:visible;fill:#FFFFFF;"/>
						<clipPath id="XMLID_00000143597142279532417100000018169674845462832827_">
							<use xlink:href="#XMLID_13_"  style="overflow:visible;"/>
						</clipPath>
						<path style="clip-path:url(#XMLID_00000143597142279532417100000018169674845462832827_);" d="M458.113,97.042
							c-0.194,1.283,0.471,2.448,1.487,2.602c1.016,0.154,1.997-0.761,2.191-2.044c0.194-1.283-0.471-2.448-1.487-2.602
							S458.307,95.759,458.113,97.042z"/>
					</g>
					<g>
						<path d="M463.081,96.498c-0.34-0.466-0.784-0.853-1.303-1.067c-0.51-0.215-1.118-0.254-1.624-0.121l0,0l-0.029,0.007
							c-0.368,0.083-0.737,0.179-1.067,0.364c-0.333,0.173-0.645,0.39-0.916,0.654c-0.545,0.514-0.983,1.189-1.243,1.868
							l-0.007,0.019c-0.061,0.158-0.238,0.237-0.396,0.176c-0.158-0.061-0.237-0.238-0.176-0.396
							c0.001-0.002,0.002-0.006,0.003-0.008c0.172-0.414,0.379-0.764,0.623-1.111c0.244-0.342,0.527-0.658,0.843-0.937
							c0.313-0.283,0.674-0.516,1.057-0.697c0.38-0.194,0.798-0.289,1.212-0.364l-0.029,0.007c0.341-0.079,0.651-0.086,0.974-0.052
							c0.318,0.037,0.633,0.117,0.922,0.254c0.583,0.267,1.056,0.721,1.401,1.234c0.046,0.068,0.028,0.16-0.04,0.206
							C463.218,96.579,463.128,96.562,463.081,96.498z"/>
					</g>
				</g>
				<g>
					<path style="fill:#BE5640;" d="M456.536,109.319c0,0-0.631,2.348-3.29,2.205c-3.647-0.196-5.074-3.088-5.074-3.088
						L456.536,109.319z"/>
					<path style="fill:#BE5640;" d="M448.508,108.436c0,0,7.421-1.29,7.893,0.794C456.401,109.23,451.232,110.014,448.508,108.436z"
						/>
					
						<path style="fill:none;stroke:#000000;stroke-width:0.4443;stroke-linecap:round;stroke-linejoin:round;stroke-miterlimit:10;" d="
						M456.937,109.027c0,0-3.946,1.897-9.026-0.901"/>
				</g>
			</g>
			<path d="M433.019,101.377c0,0,8.219-17.742-3.067-23.42c0,0-3.617-3.581-5.45,6.026
				C421.562,99.394,433.019,101.377,433.019,101.377z"/>
			<g>
				<path style="fill:#C67B5B;" d="M435.289,105.37c-0.48-2.096-1.319-4.105-2.574-5.918c-1.72-2.487-4.162-4.77-7.155-2.864
					c-5.098,3.246,1.365,11.401,7.015,11.416C434.237,108.008,435.591,106.689,435.289,105.37L435.289,105.37z"/>
				
					<path style="fill:none;stroke:#000000;stroke-width:0.4443;stroke-linecap:round;stroke-linejoin:round;stroke-miterlimit:10;" d="
					M427.019,100.705c3.986-1.42,6.183,3.042,6.183,3.042"/>
				<path style="fill:#FFFFFF;" d="M433.202,107.437c0,0.795-0.644,1.439-1.439,1.439c-0.795,0-1.439-0.644-1.439-1.439
					s0.644-1.439,1.439-1.439C432.558,105.997,433.202,106.642,433.202,107.437z"/>
			</g>
			<path d="M431.257,78.726c0,0,9.963,4.116,18.454,0s13.492,3.686,13.492,3.686s-3.029-12.402-17.098-11.433
				C432.036,71.948,431.257,78.726,431.257,78.726z"/>
		</g>
	</g>
	
		<line style="fill:none;stroke:#000000;stroke-width:0.6648;stroke-linecap:round;stroke-linejoin:round;stroke-miterlimit:10;" x1="38.555" y1="452.505" x2="697.817" y2="452.505"/>
</g>
</svg>
